<svg xmlns="http://www.w3.org/2000/svg" width="239" height="48" fill="none"><g clip-path="url(#a)"><path fill="url(#b)" d="m28.201 47.99 1.064-.38c.432-.157 5.688-2.053 10.901-5.697 3.96 3.37 7.647 5.371 7.984 5.55 1.275.685 2.854.2 3.54-1.074a2.61 2.61 0 0 0-1.075-3.539c-.105-.063-3.033-1.653-6.299-4.286 3.665-3.475 6.551-7.95 6.551-13.416 0-3.697-1.095-6.845-3.16-9.099-1.927-2.106-4.528-3.254-7.34-3.254-5.088 0-10.238 3.97-10.238 11.553 0 5.37 2.802 10.11 6.193 13.869-3.107 2.032-6.172 3.412-7.742 4.065a61 61 0 0 1-9.731-7.077c5.013-5.455 9.363-12.353 9.363-19.85C28.212 5.38 21.45 0 15.088 0c-3.36 0-6.435 1.422-8.668 4.012-2.38 2.76-3.634 6.688-3.634 11.342 0 7.898 3.928 14.628 8.636 19.862C6.294 39.88 1.375 42.86 1.27 42.924a2.607 2.607 0 0 0-.895 3.58 2.62 2.62 0 0 0 3.581.906c.464-.274 5.688-3.444 11.176-8.488 5.803 5.265 11.575 8.309 12.059 8.562L28.2 48zm12.166-29.982c1.326 0 2.559.558 3.486 1.559 1.17 1.274 1.78 3.2 1.78 5.56 0 3.886-2.244 7.203-5.161 9.888-2.812-3.011-5.119-6.697-5.119-10.678 0-4.37 2.517-6.33 5.003-6.33zm-17.369-2.675c0 5.866-3.581 11.52-7.836 16.155-3.94-4.424-7.141-9.931-7.141-16.155 0-3.39.821-6.129 2.37-7.93 1.221-1.421 2.896-2.2 4.708-2.2 3.928 0 7.9 3.485 7.9 10.13"/><path fill="#fff" d="M73.815 38.987V26.694c0-3.881 2.197-5.563 4.653-5.563 2.886 0 4.824 1.682 4.824 5.563v12.292h5.816V26.694c0-4.312 1.852-5.563 4.566-5.563 2.627 0 4.48 1.682 4.48 5.563v12.292h5.815V25.272c0-5.65-3.705-9.229-8.53-9.229-3.92 0-6.073 1.51-7.58 4.227-1.465-2.717-4.136-4.227-7.28-4.227-3.447 0-5.687 1.294-6.85 3.795v-3.277H68v22.426zm43.438.56c4.436 0 8.184-1.984 9.993-4.787l-4.523-3.407c-1.034 1.725-2.972 3.019-5.47 3.019-2.93 0-4.911-1.855-5.557-4.485h16.756c.13-.733.173-1.423.173-2.07 0-6.47-4.653-11.817-11.372-11.817s-11.588 5.348-11.588 11.817 4.652 11.73 11.588 11.73m5.513-14.016h-11.07c.646-2.674 2.713-4.528 5.47-4.528 2.843 0 4.954 2.027 5.6 4.528m13.542 13.456V26.694c0-3.881 2.197-5.563 4.653-5.563 2.886 0 4.824 1.682 4.824 5.563v12.292h5.816V26.694c0-4.312 1.852-5.563 4.566-5.563 2.627 0 4.48 1.682 4.48 5.563v12.292h5.815V25.272c0-5.65-3.705-9.229-8.529-9.229-3.92 0-6.074 1.51-7.582 4.227-1.464-2.717-4.135-4.227-7.28-4.227-3.446 0-5.686 1.294-6.849 3.795v-3.277h-5.729v22.426zm43.782.56c6.936 0 11.932-5.261 11.932-11.73s-4.996-11.774-11.932-11.774c-6.935 0-11.932 5.305-11.932 11.774s4.997 11.73 11.932 11.73m0-5.304c-3.704 0-6.117-2.933-6.117-6.426s2.413-6.47 6.117-6.47 6.117 2.976 6.117 6.47-2.412 6.426-6.117 6.426m19.659 4.743v-12.29c0-3.882 2.197-5.564 4.653-5.564 2.886 0 4.824 1.682 4.824 5.563v12.292h5.815V25.272c0-5.65-3.704-9.229-8.529-9.229-3.446 0-5.686 1.294-6.849 3.795v-3.277h-5.729v22.426zM219.142 48c5.255 0 8.055-3.062 9.95-7.59L239 16.56h-6.892l-4.351 12.81c-.388 1.077-.732 2.414-.948 3.579a24 24 0 0 0-.947-3.58l-4.351-12.808h-7.021l8.873 21.39-.301.95c-.646 1.983-2.068 3.406-4.308 3.406-.948 0-1.766-.086-2.628-.302l-.861 5.564c1.163.345 2.714.431 3.877.431"/></g><defs><linearGradient id="b" x1="0" x2="51.992" y1="0" y2="48.177" gradientUnits="userSpaceOnUse"><stop stop-color="#7624C9"/><stop offset="1" stop-color="#E63946"/></linearGradient><clipPath id="a"><path fill="#fff" d="M0 0h239v48H0z"/></clipPath></defs></svg>