<svg xmlns="http://www.w3.org/2000/svg" width="600" height="126"><defs><linearGradient id="a" x1="100%" x2="0%" y1="7.383%" y2="92.617%"><stop offset="0%" stop-color="#6A0DAD"/><stop offset="100%" stop-color="#E63946"/></linearGradient></defs><path fill="#FFF" d="M198.147 91.855V61.99c0-9.432 5.345-13.518 11.318-13.518 7.021 0 11.737 4.086 11.737 13.518v29.866h14.147V61.99c0-10.48 4.506-13.518 11.108-13.518 6.393 0 10.899 4.086 10.899 13.518v29.866h14.147V58.531c0-13.728-9.012-22.426-20.75-22.426-9.535 0-14.775 3.668-18.443 10.27-3.563-6.602-10.06-10.27-17.71-10.27-8.384 0-13.833 3.144-16.662 9.222v-7.965H184v54.493zm105.672 1.363c10.794 0 19.91-4.82 24.312-11.633l-11.003-8.278c-2.515 4.191-7.23 7.335-13.309 7.335-7.126 0-11.947-4.506-13.518-10.898h40.764a28.7 28.7 0 0 0 .42-5.03c0-15.72-11.318-28.714-27.666-28.714s-28.19 12.994-28.19 28.714 11.318 28.504 28.19 28.504m13.414-34.058H290.3c1.571-6.498 6.602-11.004 13.308-11.004 6.917 0 12.052 4.925 13.624 11.004m32.944 32.695V61.99c0-9.432 5.345-13.518 11.318-13.518 7.021 0 11.737 4.086 11.737 13.518v29.866h14.147V61.99c0-10.48 4.506-13.518 11.108-13.518 6.393 0 10.899 4.086 10.899 13.518v29.866h14.147V58.531c0-13.728-9.012-22.426-20.749-22.426-9.536 0-14.776 3.668-18.444 10.27-3.563-6.602-10.06-10.27-17.71-10.27-8.384 0-13.833 3.144-16.662 9.222v-7.965H336.03v54.493zm106.51 1.363c16.872 0 29.028-12.785 29.028-28.504s-12.156-28.61-29.028-28.61c-16.871 0-29.028 12.89-29.028 28.61s12.157 28.504 29.028 28.504m0-12.89c-9.012 0-14.88-7.126-14.88-15.614 0-8.489 5.868-15.72 14.88-15.72s14.881 7.231 14.881 15.72c0 8.488-5.868 15.614-14.88 15.614m47.826 11.527V61.99c0-9.432 5.344-13.518 11.318-13.518 7.02 0 11.737 4.086 11.737 13.518v29.866h14.147V58.531c0-13.728-9.012-22.426-20.75-22.426-8.383 0-13.832 3.144-16.662 9.222v-7.965h-13.937v54.493zm47.177 21.902c12.785 0 19.596-7.44 24.207-18.444L600 37.363h-16.767l-10.584 31.123c-.943 2.62-1.782 5.869-2.306 8.698-.524-2.83-1.362-6.078-2.305-8.698l-10.584-31.124h-17.082L561.96 89.34l-.734 2.306c-1.572 4.82-5.03 8.278-10.48 8.278-2.305 0-4.296-.21-6.392-.733l-2.096 13.518c2.83.839 6.602 1.048 9.432 1.048"/><path fill="url(#a)" d="m62.243 125.53-2.783-.99c-1.129-.414-14.875-5.373-28.51-14.904-10.358 8.815-20 14.05-20.881 14.517-3.333 1.791-7.465.524-9.256-2.81-1.79-3.332-.523-7.465 2.81-9.255.275-.165 7.933-4.325 16.473-11.212C10.51 91.786 2.962 80.08 2.962 65.782c0-9.67 2.865-17.906 8.264-23.8 5.041-5.51 11.845-8.513 19.2-8.513 13.305 0 26.776 10.386 26.776 30.22 0 14.048-7.328 26.444-16.198 36.278 8.126 5.317 16.142 8.926 20.247 10.633 4.71-2.727 15.068-9.2 25.453-18.511-13.112-14.27-24.489-32.312-24.489-51.926C62.215 14.076 79.9 0 96.538 0c8.788 0 16.831 3.719 22.671 10.495 6.226 7.218 9.504 17.493 9.504 29.668 0 20.66-10.275 38.263-22.588 51.954 13.415 12.203 26.28 19.998 26.555 20.164 3.223 1.928 4.297 6.143 2.341 9.366-1.928 3.223-6.143 4.297-9.366 2.369-1.212-.717-14.875-9.008-29.227-22.203-15.178 13.773-30.274 21.734-31.54 22.396l-2.645 1.35zM30.426 47.106c-3.47 0-6.694 1.46-9.118 4.077-3.058 3.333-4.655 8.374-4.655 14.545 0 10.164 5.867 18.842 13.498 25.866 7.355-7.878 13.387-17.52 13.387-27.932 0-11.432-6.583-16.556-13.084-16.556zm66.085-33.497c-10.275 0-20.66 9.118-20.66 26.5 0 15.344 9.366 30.136 20.495 42.257 10.302-11.57 18.676-25.977 18.676-42.257 0-8.87-2.148-16.032-6.198-20.743-3.195-3.718-7.575-5.757-12.313-5.757"/></svg>