<svg xmlns="http://www.w3.org/2000/svg" width="600" height="93"><style>@media (prefers-color-scheme:dark){.a{fill:#fff}}</style><defs><linearGradient id="a" x1="63.654%" x2="40.097%" y1="0%" y2="100%"><stop offset="0%" stop-color="#E63946"/><stop offset="100%" stop-color="#6A0DAD"/></linearGradient><linearGradient id="b" x1="100%" x2="0%" y1="25.473%" y2="74.527%"><stop offset="0%" stop-color="#E63946"/><stop offset="100%" stop-color="#6A0DAD"/></linearGradient></defs><path class="a" fill="#010408" d="M198.147 70.855V40.99c0-9.432 5.345-13.518 11.318-13.518 7.021 0 11.737 4.086 11.737 13.518v29.866h14.147V40.99c0-10.48 4.506-13.518 11.108-13.518 6.393 0 10.899 4.086 10.899 13.518v29.866h14.147V37.531c0-13.728-9.012-22.426-20.75-22.426-9.535 0-14.775 3.668-18.443 10.27-3.563-6.602-10.06-10.27-17.71-10.27-8.384 0-13.833 3.144-16.662 9.222v-7.965H184v54.493zm105.672 1.363c10.794 0 19.91-4.82 24.312-11.633l-11.003-8.278c-2.515 4.191-7.23 7.335-13.309 7.335-7.126 0-11.947-4.506-13.518-10.898h40.764a28.7 28.7 0 0 0 .42-5.03c0-15.72-11.318-28.714-27.666-28.714s-28.19 12.994-28.19 28.714 11.318 28.504 28.19 28.504m13.414-34.058H290.3c1.571-6.498 6.602-11.004 13.308-11.004 6.917 0 12.052 4.925 13.624 11.004m32.944 32.695V40.99c0-9.432 5.345-13.518 11.318-13.518 7.021 0 11.737 4.086 11.737 13.518v29.866h14.147V40.99c0-10.48 4.506-13.518 11.108-13.518 6.393 0 10.899 4.086 10.899 13.518v29.866h14.147V37.531c0-13.728-9.012-22.426-20.749-22.426-9.536 0-14.776 3.668-18.444 10.27-3.563-6.602-10.06-10.27-17.71-10.27-8.384 0-13.833 3.144-16.662 9.222v-7.965H336.03v54.493zm106.51 1.363c16.872 0 29.028-12.785 29.028-28.504s-12.156-28.61-29.028-28.61c-16.871 0-29.028 12.89-29.028 28.61s12.157 28.504 29.028 28.504m0-12.89c-9.012 0-14.88-7.126-14.88-15.614 0-8.489 5.868-15.72 14.88-15.72s14.881 7.231 14.881 15.72c0 8.488-5.868 15.614-14.88 15.614m47.826 11.527V40.99c0-9.432 5.344-13.518 11.318-13.518 7.02 0 11.737 4.086 11.737 13.518v29.866h14.147V37.531c0-13.728-9.012-22.426-20.75-22.426-8.383 0-13.832 3.144-16.662 9.222v-7.965h-13.937v54.493zm47.177 21.902c12.785 0 19.596-7.44 24.207-18.444L600 16.363h-16.767l-10.584 31.123c-.943 2.62-1.782 5.869-2.306 8.698-.524-2.83-1.362-6.078-2.305-8.698l-10.584-31.124h-17.082L561.96 68.34l-.734 2.306c-1.572 4.82-5.03 8.278-10.48 8.278-2.305 0-4.296-.21-6.392-.733l-2.096 13.518c2.83.839 6.602 1.048 9.432 1.048"/><path fill="url(#a)" d="M115.2.025c6.935 0 12.583 5.517 12.793 12.402l.007.398v64c0 7.07-5.731 12.8-12.8 12.8-6.936 0-12.584-5.517-12.794-12.401l-.006-.399v-64c0-7.069 5.73-12.8 12.8-12.8"/><path fill="url(#b)" d="M51.2 12.825C51.2.855 66.11-4.503 73.748 4.53l.247.3 51.2 63.999c4.416 5.52 3.52 13.575-2 17.991-5.407 4.326-13.247 3.556-17.716-1.667l-.275-.332L76.8 49.315v27.51c0 11.97-14.91 17.328-22.549 8.296l-.246-.3L25.6 49.315v27.51c0 6.936-5.517 12.583-12.401 12.794l-.399.006C5.864 89.625.217 84.108.006 77.224L0 76.825v-64C0 .855 14.91-4.503 22.549 4.53l.246.3L51.2 40.336z"/></svg>